<svg aria-hidden="true" style="position: absolute; width: 0; height: 0; overflow: hidden;"
  version="1.1"
  xmlns="http://www.w3.org/2000/svg" xmlns:xlink="http://www.w3.org/1999/xlink">
  <defs>
    <symbol viewBox="0 0 83 28" id="logo-icon">
      <path d="M76.7697 23.0118C75.6817 23.0118 74.6897 22.8918 73.7937 22.6518C72.8977 22.4118 72.1377 22.0758 71.5137 21.6438L72.4497 19.2438C73.0737 19.6278 73.7617 19.9318 74.5137 20.1558C75.2817 20.3798 76.0417 20.4918 76.7937 20.4918C77.4977 20.4918 78.0177 20.3798 78.3537 20.1558C78.6897 19.9318 78.8577 19.6278 78.8577 19.2438C78.8577 18.9238 78.7457 18.6758 78.5217 18.4998C78.3137 18.3238 77.9857 18.1958 77.5377 18.1158L75.0657 17.6598C74.0257 17.4518 73.2337 17.0678 72.6897 16.5078C72.1457 15.9478 71.8737 15.2198 71.8737 14.3238C71.8737 13.5398 72.0817 12.8518 72.4977 12.2598C72.9297 11.6518 73.5457 11.1798 74.3457 10.8438C75.1457 10.5078 76.0817 10.3398 77.1537 10.3398C78.0657 10.3398 78.9297 10.4518 79.7457 10.6758C80.5617 10.8998 81.2577 11.2438 81.8337 11.7078L80.8497 14.0358C80.3537 13.6678 79.7777 13.3718 79.1217 13.1478C78.4817 12.9238 77.8657 12.8118 77.2737 12.8118C76.5057 12.8118 75.9537 12.9398 75.6177 13.1958C75.2817 13.4358 75.1137 13.7478 75.1137 14.1318C75.1137 14.4198 75.2097 14.6598 75.4017 14.8518C75.6097 15.0438 75.9217 15.1878 76.3377 15.2838L78.8337 15.7398C79.9057 15.9318 80.7217 16.2918 81.2817 16.8198C81.8417 17.3478 82.1217 18.0758 82.1217 19.0038C82.1217 19.8518 81.8977 20.5718 81.4497 21.1638C81.0017 21.7558 80.3697 22.2118 79.5537 22.5318C78.7537 22.8518 77.8257 23.0118 76.7697 23.0118Z" fill="currentColor"/>
      <path d="M65.6868 23.0118C63.5748 23.0118 61.9268 22.4438 60.7428 21.3078C59.5588 20.1718 58.9668 18.6278 58.9668 16.6758C58.9668 15.4118 59.2148 14.3078 59.7108 13.3638C60.2228 12.4198 60.9268 11.6838 61.8228 11.1558C62.7348 10.6118 63.7988 10.3398 65.0148 10.3398C66.2148 10.3398 67.2148 10.5958 68.0148 11.1078C68.8308 11.6198 69.4388 12.3398 69.8388 13.2678C70.2548 14.1798 70.4628 15.2438 70.4628 16.4598V17.2998H61.9428V15.4998H67.8228L67.4148 15.8358C67.4148 14.8278 67.2068 14.0678 66.7908 13.5558C66.3908 13.0278 65.8068 12.7638 65.0388 12.7638C64.1908 12.7638 63.5348 13.0758 63.0708 13.6998C62.6228 14.3238 62.3988 15.2198 62.3988 16.3878V16.7718C62.3988 17.9558 62.6868 18.8358 63.2628 19.4118C63.8548 19.9878 64.7028 20.2758 65.8068 20.2758C66.4628 20.2758 67.0788 20.1958 67.6548 20.0358C68.2468 19.8598 68.8068 19.5878 69.3348 19.2198L70.3428 21.6198C69.7348 22.0678 69.0308 22.4118 68.2308 22.6518C67.4468 22.8918 66.5988 23.0118 65.6868 23.0118Z" fill="currentColor"/>
      <path d="M53.4604 22.7481V10.5801H57.0844V22.7481H53.4604ZM53.3164 8.5881V5.2041H57.2044V8.5881H53.3164Z" fill="currentColor"/>
      <path d="M43.5528 23.012C42.4968 23.012 41.5608 22.756 40.7448 22.244C39.9448 21.732 39.3128 21.004 38.8488 20.06C38.4008 19.116 38.1768 17.98 38.1768 16.652C38.1768 15.34 38.4008 14.212 38.8488 13.268C39.2968 12.324 39.9288 11.604 40.7448 11.108C41.5608 10.596 42.4968 10.34 43.5528 10.34C44.5128 10.34 45.3688 10.572 46.1208 11.036C46.8888 11.484 47.4008 12.092 47.6568 12.86H47.3448V5.08398H50.9688V22.748H47.3928V20.372H47.7048C47.4488 21.172 46.9368 21.812 46.1688 22.292C45.4008 22.772 44.5288 23.012 43.5528 23.012ZM44.6328 20.276C45.4648 20.276 46.1368 19.98 46.6488 19.388C47.1608 18.796 47.4168 17.884 47.4168 16.652C47.4168 15.42 47.1608 14.516 46.6488 13.94C46.1368 13.364 45.4648 13.076 44.6328 13.076C43.8008 13.076 43.1208 13.364 42.5928 13.94C42.0808 14.516 41.8248 15.42 41.8248 16.652C41.8248 17.884 42.0808 18.796 42.5928 19.388C43.1208 19.98 43.8008 20.276 44.6328 20.276Z" fill="currentColor"/>
      <path d="M30.5319 23.0118C29.2359 23.0118 28.1079 22.7558 27.1479 22.2438C26.2039 21.7158 25.4679 20.9798 24.9399 20.0358C24.4279 19.0918 24.1719 17.9638 24.1719 16.6518C24.1719 15.3558 24.4279 14.2358 24.9399 13.2918C25.4679 12.3478 26.2039 11.6198 27.1479 11.1078C28.1079 10.5958 29.2359 10.3398 30.5319 10.3398C31.8279 10.3398 32.9559 10.5958 33.9159 11.1078C34.8759 11.6198 35.6119 12.3478 36.1239 13.2918C36.6519 14.2358 36.9159 15.3558 36.9159 16.6518C36.9159 17.9638 36.6519 19.0918 36.1239 20.0358C35.6119 20.9798 34.8759 21.7158 33.9159 22.2438C32.9559 22.7558 31.8279 23.0118 30.5319 23.0118ZM30.5319 20.2758C31.3639 20.2758 32.0199 19.9798 32.4999 19.3878C32.9959 18.7958 33.2439 17.8838 33.2439 16.6518C33.2439 15.4198 32.9959 14.5158 32.4999 13.9398C32.0199 13.3638 31.3639 13.0758 30.5319 13.0758C29.6999 13.0758 29.0359 13.3638 28.5399 13.9398C28.0599 14.5158 27.8199 15.4198 27.8199 16.6518C27.8199 17.8838 28.0599 18.7958 28.5399 19.3878C29.0359 19.9798 29.6999 20.2758 30.5319 20.2758Z" fill="currentColor"/>
      <path d="M16.528 23.0118C15.232 23.0118 14.104 22.7558 13.144 22.2438C12.2 21.7158 11.464 20.9798 10.936 20.0358C10.424 19.0918 10.168 17.9638 10.168 16.6518C10.168 15.3558 10.424 14.2358 10.936 13.2918C11.464 12.3478 12.2 11.6198 13.144 11.1078C14.104 10.5958 15.232 10.3398 16.528 10.3398C17.824 10.3398 18.952 10.5958 19.912 11.1078C20.872 11.6198 21.608 12.3478 22.12 13.2918C22.648 14.2358 22.912 15.3558 22.912 16.6518C22.912 17.9638 22.648 19.0918 22.12 20.0358C21.608 20.9798 20.872 21.7158 19.912 22.2438C18.952 22.7558 17.824 23.0118 16.528 23.0118ZM16.528 20.2758C17.36 20.2758 18.016 19.9798 18.496 19.3878C18.992 18.7958 19.24 17.8838 19.24 16.6518C19.24 15.4198 18.992 14.5158 18.496 13.9398C18.016 13.3638 17.36 13.0758 16.528 13.0758C15.696 13.0758 15.032 13.3638 14.536 13.9398C14.056 14.5158 13.816 15.4198 13.816 16.6518C13.816 17.8838 14.056 18.7958 14.536 19.3878C15.032 19.9798 15.696 20.2758 16.528 20.2758Z" fill="currentColor"/>
      <path d="M3.18291 22.7483V13.2923H0.878906V10.5803H4.21491L3.18291 11.5163V9.76428C3.18291 8.18028 3.59091 6.98828 4.40691 6.18828C5.23891 5.38828 6.47891 4.98828 8.12691 4.98828C8.49491 4.98828 8.88691 5.01228 9.30291 5.06028C9.73491 5.10828 10.1109 5.20428 10.4309 5.34828V8.13228C10.2069 8.05228 9.95091 7.99628 9.66291 7.96428C9.37491 7.91628 9.09491 7.89228 8.82291 7.89228C8.45491 7.89228 8.11091 7.95628 7.79091 8.08428C7.48691 8.21228 7.23891 8.42828 7.04691 8.73228C6.87091 9.02028 6.78291 9.41228 6.78291 9.90828V11.1803L6.27891 10.5803H9.85491V13.2923H6.80691V22.7483H3.18291Z" fill="currentColor"/>
    </symbol>
    <symbol viewBox="0 0 28 28" id="menu-icon">
      <path d="M24.5 10.6665C25.0523 10.6665 25.5 11.1142 25.5 11.6665C25.5 12.2188 25.0523 12.6665 24.5 12.6665H3.5C2.94772 12.6665 2.5 12.2188 2.5 11.6665C2.5 11.1142 2.94772 10.6665 3.5 10.6665H24.5Z" fill="currentColor"/>
      <path d="M24.5 6C25.0523 6 25.5 6.44772 25.5 7C25.5 7.55228 25.0523 8 24.5 8H3.5C2.94772 8 2.5 7.55228 2.5 7C2.5 6.44772 2.94772 6 3.5 6H24.5Z" fill="currentColor"/>
      <path d="M24.5 15.3335C25.0523 15.3335 25.5 15.7812 25.5 16.3335C25.5 16.8858 25.0523 17.3335 24.5 17.3335H3.5C2.94772 17.3335 2.5 16.8858 2.5 16.3335C2.5 15.7812 2.94772 15.3335 3.5 15.3335H24.5Z" fill="currentColor"/>
      <path d="M24.5 20C25.0523 20 25.5 20.4477 25.5 21C25.5 21.5523 25.0523 22 24.5 22H3.5C2.94772 22 2.5 21.5523 2.5 21C2.5 20.4477 2.94772 20 3.5 20H24.5Z" fill="currentColor"/>
    </symbol>
    <symbol viewBox="0 0 20 20" id="facebook-icon">
      <path d="M12.2 2.9001C12.35 2.9001 12.5 2.9001 12.8 2.9001V5.1501C12.65 5.1501 12.35 5.1501 12.05 5.1501C11.75 5.1501 11.45 5.1501 11.3 5.3001C11.15 5.4501 11.15 5.6001 11.15 5.9501C11.15 6.2501 11.15 6.4501 11.15 6.7501H12.8V8.6501H11.15V16.9001H8.60001V8.6001H7.25V6.7001H8.60001V6.0501C8.60001 4.9501 8.75 4.1501 9.05 3.8001C9.5 3.1501 10.4 2.8501 11.75 2.8501C11.9 2.9001 12.05 2.9001 12.2 2.9001Z" fill="currentColor"/>
    </symbol>
    <symbol viewBox="0 0 20 20" id="instagram-icon">
      <path d="M17.9485 6.72248C17.9387 6.051 17.8143 5.38485 17.5762 4.75685C17.1595 3.68444 16.311 2.83646 15.2368 2.42133C14.6157 2.18805 13.9591 2.06298 13.2945 2.04879C12.4398 2.01064 12.1688 2 9.99911 2C7.82941 2 7.55131 2 6.7028 2.04879C6.03909 2.06298 5.3825 2.18805 4.76144 2.42133C3.68725 2.83646 2.83785 3.68444 2.42203 4.75685C2.18836 5.37687 2.06219 6.03238 2.04976 6.69498C2.01155 7.54917 2 7.81972 2 9.98581C2 12.1519 2 12.4287 2.04976 13.2766C2.06308 13.9401 2.18836 14.5947 2.42203 15.2165C2.83874 16.2881 3.68725 17.136 4.76233 17.5512C5.38072 17.7924 6.03732 17.929 6.70369 17.9503C7.55931 17.9885 7.8303 18 10 18C12.1697 18 12.4478 18 13.2963 17.9503C13.96 17.937 14.6166 17.812 15.2386 17.5787C16.3127 17.1627 17.1613 16.3147 17.578 15.2432C17.8116 14.6222 17.9369 13.9676 17.9502 13.3033C17.9884 12.4499 18 12.1794 18 10.0124C17.9982 7.84633 17.9982 7.57135 17.9485 6.72248ZM9.99378 14.0821C7.72457 14.0821 5.88627 12.2468 5.88627 9.98137C5.88627 7.71593 7.72457 5.8807 9.99378 5.8807C12.2612 5.8807 14.1013 7.71593 14.1013 9.98137C14.1013 12.2468 12.2612 14.0821 9.99378 14.0821ZM14.2648 6.68522C13.7343 6.68522 13.307 6.25768 13.307 5.72902C13.307 5.20036 13.7343 4.77281 14.2648 4.77281C14.7934 4.77281 15.2217 5.20036 15.2217 5.72902C15.2217 6.25768 14.7934 6.68522 14.2648 6.68522Z" fill="currentColor"/>
      <path d="M9.99469 12.485C11.3768 12.485 12.4972 11.3646 12.4972 9.98248C12.4972 8.60039 11.3768 7.47998 9.99469 7.47998C8.6126 7.47998 7.49219 8.60039 7.49219 9.98248C7.49219 11.3646 8.6126 12.485 9.99469 12.485Z" fill="currentColor"/>
    </symbol>
    <symbol viewBox="0 0 20 20" id="youtube-icon">
      <path d="M18.82 5.84762C18.82 5.84762 18.64 4.54762 18.1 3.99048C17.44 3.24762 16.66 3.24762 16.3 3.18571C13.78 3 10 3 10 3C10 3 6.22 3 3.7 3.18571C3.34 3.24762 2.56 3.24762 1.9 3.99048C1.36 4.54762 1.18 5.84762 1.18 5.84762C1.18 5.84762 1 7.33333 1 8.81905V10.181C1 11.6667 1.18 13.2143 1.18 13.2143C1.18 13.2143 1.36 14.5143 1.9 15.0714C2.56 15.8143 3.46 15.8143 3.88 15.8762C5.32 15.9381 10 16 10 16C10 16 13.78 16 16.3 15.8143C16.66 15.7524 17.44 15.7524 18.1 15.0095C18.64 14.4524 18.82 13.1524 18.82 13.1524C18.82 13.1524 19 11.6667 19 10.181V8.81905C19 7.33333 18.82 5.84762 18.82 5.84762ZM8.14 11.9143V6.71429L13 9.31429L8.14 11.9143Z" fill="currentColor"/>
    </symbol>
    <symbol viewBox="0 0 59 48" id="quote-icon">
      <path d="M0 48V31.9412C0 25.9412 1.05672 20.4118 3.17015 15.3529C5.28358 10.2941 8.86468 5.17647 13.9134 0L23.0716 7.2353C20.1363 10.1765 17.9055 12.9412 16.3791 15.5294C14.8527 18.1177 13.8547 20.7647 13.3851 23.4706H24.6567V48H0ZM34.3433 48V31.9412C34.3433 25.9412 35.4 20.4118 37.5134 15.3529C39.6269 10.2941 43.208 5.17647 48.2567 0L57.4149 7.2353C54.4796 10.1765 52.2488 12.9412 50.7224 15.5294C49.196 18.1177 48.198 20.7647 47.7284 23.4706H59V48H34.3433Z" fill="currentColor"/>
    </symbol>
    <symbol viewBox="0 0 18 18" id="arrow-up-right-icon">
      <path d="M12.2197 4.71967C12.5126 4.42678 12.9873 4.42678 13.2802 4.71967C13.5731 5.01256 13.5731 5.48732 13.2802 5.78022L5.78022 13.2802C5.48732 13.5731 5.01256 13.5731 4.71967 13.2802C4.42678 12.9873 4.42678 12.5126 4.71967 12.2197L12.2197 4.71967Z" fill="currentColor"/>
      <path d="M12 12.75V6H5.25C4.83579 6 4.5 5.66421 4.5 5.25C4.5 4.83579 4.83579 4.5 5.25 4.5H12.75C13.1642 4.5 13.5 4.83579 13.5 5.25V12.75C13.5 13.1642 13.1642 13.5 12.75 13.5C12.3358 13.5 12 13.1642 12 12.75Z" fill="currentColor"/>
    </symbol>
    <symbol viewBox="0 0 18 18" id="chevron-down-icon">
      <path d="M12.8632 6.11321C13.2147 5.76174 13.7852 5.76174 14.1367 6.11321C14.4881 6.46469 14.4881 7.03518 14.1367 7.38665L9.63665 11.8867C9.28518 12.2381 8.71469 12.2381 8.36321 11.8867L3.86321 7.38665C3.51174 7.03518 3.51174 6.46469 3.86321 6.11321C4.21469 5.76174 4.78518 5.76174 5.13665 6.11321L8.99993 9.97649L12.8632 6.11321Z" fill="currentColor"/>
    </symbol>
    <symbol viewBox="0 0 20 20" id="eye-icon">
      <g clip-path="url(#clip0_18005_2844)">
      <path d="M10.0002 2.43311C13.2762 2.43323 15.7889 4.30405 17.427 6.05127C18.2542 6.93369 18.8861 7.81267 19.3108 8.47021C19.5236 8.79983 19.6857 9.07663 19.7961 9.27295C19.8513 9.37104 19.8939 9.44919 19.9231 9.50439C19.9377 9.53203 19.9492 9.55414 19.9573 9.56982C19.9612 9.57756 19.9647 9.58372 19.967 9.58838L19.9709 9.59619V9.59717C19.9673 9.59937 19.9138 9.62669 19.1662 10.0005L19.9709 10.4028V10.4038L19.9573 10.4312C19.9492 10.4468 19.9375 10.4682 19.9231 10.4956C19.8938 10.5509 19.8514 10.6298 19.7961 10.728C19.6857 10.9243 19.5235 11.2004 19.3108 11.5298C18.8861 12.1873 18.2542 13.0663 17.427 13.9487C15.7889 15.696 13.2763 17.5668 10.0002 17.5669C6.724 17.5669 4.21061 15.6961 2.57249 13.9487C1.7453 13.0664 1.11334 12.1873 0.6887 11.5298C0.475982 11.2004 0.313734 10.9243 0.203349 10.728C0.148097 10.6298 0.105637 10.5509 0.0763956 10.4956C0.0619139 10.4682 0.0502392 10.4468 0.0422159 10.4312L0.028544 10.4038V10.4028C-0.0980999 10.1495 -0.0980128 9.85146 0.028544 9.59814L0.833232 10.0005C0.0608026 9.61427 0.0296518 9.59811 0.028544 9.59717V9.59619L0.0324503 9.58838C0.0347985 9.58375 0.038272 9.5775 0.0422159 9.56982C0.0502687 9.55416 0.0618036 9.53197 0.0763956 9.50439C0.105597 9.44921 0.148208 9.37099 0.203349 9.27295C0.313761 9.07666 0.475876 8.79976 0.6887 8.47021C1.11337 7.81267 1.74522 6.93369 2.57249 6.05127C4.21061 4.30395 6.72401 2.43311 10.0002 2.43311ZM10.0002 4.23389C7.44311 4.23389 5.37285 5.69671 3.88597 7.28271C3.15077 8.06693 2.58402 8.85434 2.2014 9.44678C2.06308 9.66094 1.94959 9.84849 1.86155 9.99951C1.94965 10.1507 2.06283 10.3387 2.2014 10.5532C2.58402 11.1457 3.15073 11.934 3.88597 12.7183C5.37283 14.3041 7.44329 15.7671 10.0002 15.7671C12.5572 15.767 14.6277 14.3042 16.1145 12.7183C16.8497 11.934 17.4154 11.1457 17.7981 10.5532C17.9365 10.3389 18.0489 10.1506 18.1369 9.99951C18.049 9.84859 17.9362 9.66068 17.7981 9.44678C17.4155 8.85443 16.8495 8.06676 16.1145 7.28271C14.6277 5.69677 12.5572 4.23401 10.0002 4.23389ZM19.9719 9.59814C20.0983 9.85141 20.0985 10.1496 19.9719 10.4028L19.1662 10.0005L19.9719 9.59814Z" fill="currentColor"/>
      <path d="M11.5996 10C11.5996 9.11634 10.8837 8.40039 10 8.40039C9.11634 8.40039 8.40039 9.11634 8.40039 10C8.40039 10.8837 9.11634 11.5996 10 11.5996C10.8837 11.5996 11.5996 10.8837 11.5996 10ZM13.4004 10C13.4004 11.8778 11.8778 13.4004 10 13.4004C8.12223 13.4004 6.59961 11.8778 6.59961 10C6.59961 8.12223 8.12223 6.59961 10 6.59961C11.8778 6.59961 13.4004 8.12223 13.4004 10Z" fill="currentColor"/>
      </g>
      <defs>
      <clipPath id="clip0_18005_2844">
      <rect width="20" height="20" fill="white"/>
      </clipPath>
      </defs>
    </symbol>
    <symbol viewBox="0 0 20 20" id="eye-slash-icon">
      <g clip-path="url(#clip0_18005_2847)">
      <path d="M4.5043 4.33447C4.89932 4.03323 5.4635 4.1095 5.76504 4.50439C6.06659 4.89942 5.99106 5.46349 5.59609 5.76514C4.08459 6.91933 2.81706 8.35956 1.86367 10.0015C1.95158 10.1522 2.0637 10.3398 2.20156 10.5532C2.58419 11.1457 3.1509 11.934 3.88613 12.7183C5.37117 14.3022 7.43803 15.7625 9.99063 15.7661C11.5876 15.7389 13.1344 15.2031 14.4047 14.2349C14.8 13.9336 15.3641 14.0095 15.6654 14.4048C15.9667 14.8001 15.8907 15.3642 15.4955 15.6655C13.9183 16.8678 11.9979 17.5344 10.015 17.5669C10.0102 17.567 10.0052 17.5669 10.0004 17.5669C6.72417 17.5669 4.21077 15.6961 2.57266 13.9487C1.74547 13.0664 1.1135 12.1873 0.688867 11.5298C0.476149 11.2004 0.3139 10.9243 0.203516 10.728C0.148264 10.6298 0.105804 10.5509 0.0765627 10.4956C0.0620802 10.4682 0.0504053 10.4468 0.042383 10.4312L0.0287112 10.4038V10.4028C-0.102065 10.1413 -0.0978284 9.83238 0.0404299 9.57471C1.13768 7.52988 2.65992 5.74286 4.5043 4.33447ZM10.0004 2.43311C13.2763 2.43323 15.7891 4.30406 17.4271 6.05127C18.2544 6.93369 18.8863 7.81267 19.3109 8.47021C19.5238 8.79983 19.6859 9.07663 19.7963 9.27295C19.8515 9.37104 19.894 9.44918 19.9232 9.50439C19.9379 9.53203 19.9494 9.55414 19.9574 9.56982C19.9614 9.57757 19.9648 9.58372 19.9672 9.58838L19.9711 9.59619V9.59717C19.9675 9.59933 19.9146 9.62637 19.1664 10.0005L19.9721 9.59814C20.1024 9.85912 20.0978 10.167 19.9604 10.4243C19.425 11.4259 18.7863 12.3688 18.0551 13.2378C17.7351 13.618 17.1678 13.6671 16.7875 13.3472C16.4072 13.0271 16.3581 12.4589 16.6781 12.0786C17.2247 11.429 17.7115 10.732 18.1361 9.99756C18.0483 9.84696 17.9358 9.65978 17.7982 9.44678C17.4157 8.85443 16.8496 8.06675 16.1146 7.28271C14.6278 5.69677 12.5574 4.23401 10.0004 4.23389H9.99844C9.47919 4.23267 8.96106 4.29135 8.45547 4.40967C7.97151 4.52295 7.48675 4.22271 7.37344 3.73877C7.26015 3.2548 7.56134 2.77002 8.04531 2.65674C8.68613 2.50678 9.34227 2.43267 10.0004 2.43408V2.43311ZM7.61953 7.57471C7.98315 7.2359 8.55313 7.25609 8.89199 7.61963C9.23085 7.98328 9.21072 8.55324 8.84707 8.89209C8.68987 9.03857 8.56343 9.21536 8.47598 9.41162C8.38862 9.6078 8.34207 9.81995 8.33828 10.0347C8.33454 10.2494 8.37407 10.4625 8.45449 10.6616C8.53493 10.8608 8.6542 11.042 8.80606 11.1938C8.95797 11.3458 9.13908 11.4659 9.33828 11.5464C9.53751 11.6269 9.75138 11.6664 9.96621 11.6626C10.1809 11.6588 10.3931 11.6113 10.5893 11.5239C10.7854 11.4365 10.9614 11.3099 11.1078 11.1528C11.4467 10.7892 12.0166 10.77 12.3803 11.1089C12.7437 11.4478 12.764 12.0168 12.4252 12.3804C12.1139 12.7144 11.7387 12.9826 11.3217 13.1685C10.9046 13.3543 10.454 13.4543 9.99746 13.4624C9.54109 13.4704 9.08769 13.3863 8.66445 13.2153C8.24109 13.0443 7.85645 12.7892 7.53359 12.4663C7.21082 12.1435 6.95652 11.7587 6.78555 11.3354C6.61462 10.9122 6.53042 10.4589 6.53848 10.0024C6.54655 9.54605 6.64667 9.09616 6.83242 8.6792C7.01825 8.26214 7.28548 7.88598 7.61953 7.57471Z" fill="currentColor"/>
      <path d="M0.196221 0.196709C0.547693 -0.154763 1.11819 -0.154763 1.46966 0.196709L19.8027 18.5307C20.154 18.8822 20.1541 19.4517 19.8027 19.8032C19.4512 20.1546 18.8817 20.1545 18.5302 19.8032L0.196221 1.47015C-0.155251 1.11868 -0.155251 0.548181 0.196221 0.196709Z" fill="currentColor"/>
      </g>
      <defs>
      <clipPath id="clip0_18005_2847">
      <rect width="20" height="20" fill="white"/>
      </clipPath>
      </defs>
    </symbol>
    <symbol viewBox="0 0 18 18" id="heart-icon">
      <path d="M16.0889 6.37451C16.0888 5.9313 16.0007 5.49198 15.8311 5.08252C15.6826 4.72429 15.4738 4.39459 15.2139 4.10791L15.0996 3.98779C14.7862 3.67423 14.4135 3.42508 14.0039 3.25537C13.5944 3.08571 13.1552 2.99854 12.7119 2.99854C12.2686 2.99856 11.8294 3.08569 11.4199 3.25537C11.0104 3.42508 10.6386 3.67426 10.3252 3.98779L9.53027 4.78271C9.23745 5.07553 8.76264 5.07539 8.46973 4.78271L7.67383 3.98779C7.04073 3.3548 6.18238 2.99854 5.28711 2.99854C4.39184 2.99854 3.53349 3.3548 2.90039 3.98779C2.26737 4.62082 1.91124 5.47929 1.91113 6.37451C1.91113 7.26987 2.26727 8.12909 2.90039 8.76221L9 14.8618L15.0996 8.76221C15.4132 8.44879 15.6613 8.07608 15.8311 7.6665C16.0007 7.25697 16.0889 6.8178 16.0889 6.37451ZM17.5889 6.37451C17.5889 7.01486 17.4619 7.64915 17.2168 8.24072C17.0023 8.75833 16.7007 9.2347 16.3252 9.64893L16.1602 9.82275L9.53027 16.4526C9.38972 16.5932 9.19877 16.6723 9 16.6724C8.80117 16.6724 8.61036 16.5932 8.46973 16.4526L1.83887 9.82275C0.924566 8.90835 0.411133 7.66761 0.411133 6.37451C0.411237 5.0816 0.924718 3.84155 1.83887 2.92725C2.75329 2.01282 3.99392 1.49854 5.28711 1.49854C6.58029 1.49854 7.82093 2.01283 8.73535 2.92725L9 3.19189L9.26367 2.92725L9.4375 2.76221C9.8518 2.38653 10.3279 2.08419 10.8457 1.86963C11.4373 1.62452 12.0716 1.49856 12.7119 1.49854C13.3522 1.49854 13.9866 1.62453 14.5781 1.86963C15.1697 2.11476 15.7074 2.47432 16.1602 2.92725C16.6129 3.37989 16.9717 3.91781 17.2168 4.50928C17.4618 5.10069 17.5888 5.73436 17.5889 6.37451Z" fill="currentColor"/>
    </symbol>
    <symbol viewBox="0 0 18 18" id="trash-icon">
      <path d="M11.25 1.5C11.6642 1.5 12 1.83579 12 2.25C12 2.66421 11.6642 3 11.25 3H6.75C6.33579 3 6 2.66421 6 2.25C6 1.83579 6.33579 1.5 6.75 1.5H11.25Z" fill="currentColor"/>
      <path d="M15.75 3.75C16.1642 3.75 16.5 4.08579 16.5 4.5C16.5 4.91421 16.1642 5.25 15.75 5.25H14.9512L14.4727 12.4395C14.434 13.0191 14.4027 13.4976 14.3457 13.8857C14.2874 14.2831 14.1947 14.647 14.002 14.9854C13.7019 15.5121 13.2486 15.9348 12.7031 16.1992C12.3527 16.3691 11.9843 16.4379 11.584 16.4697C11.1928 16.5008 10.713 16.5 10.1318 16.5H7.86816C7.287 16.5 6.80722 16.5008 6.41602 16.4697C6.01567 16.4379 5.64735 16.3691 5.29688 16.1992C4.75135 15.9348 4.29815 15.5121 3.99805 14.9854C3.80526 14.647 3.71264 14.2831 3.6543 13.8857C3.59733 13.4976 3.56599 13.0191 3.52734 12.4395L3.04883 5.25H2.25C1.83579 5.25 1.5 4.91421 1.5 4.5C1.5 4.08579 1.83579 3.75 2.25 3.75H15.75ZM5.02441 12.3398C5.06464 12.9433 5.09235 13.3523 5.13867 13.668C5.18367 13.9745 5.23893 14.1318 5.30176 14.2422C5.45181 14.5056 5.67838 14.7174 5.95117 14.8496C6.06541 14.9049 6.22562 14.9501 6.53418 14.9746C6.85231 14.9999 7.26306 15 7.86816 15H10.1318C10.7369 15 11.1477 14.9999 11.4658 14.9746C11.7744 14.9501 11.9346 14.9049 12.0488 14.8496C12.3216 14.7174 12.5482 14.5056 12.6982 14.2422C12.7611 14.1318 12.8163 13.9745 12.8613 13.668C12.9077 13.3523 12.9354 12.9433 12.9756 12.3398L13.4482 5.25H4.55176L5.02441 12.3398Z" fill="currentColor"/>
    </symbol>
    <symbol viewBox="0 0 24 24" id="x-icon">
      <path d="M17.2929 5.29289C17.6834 4.90237 18.3164 4.90237 18.707 5.29289C19.0975 5.68342 19.0975 6.31643 18.707 6.70696L6.70696 18.707C6.31643 19.0975 5.68342 19.0975 5.29289 18.707C4.90237 18.3164 4.90237 17.6834 5.29289 17.2929L17.2929 5.29289Z" fill="currentColor"/>
      <path d="M5.29289 5.29289C5.68342 4.90237 6.31643 4.90237 6.70696 5.29289L18.707 17.2929C19.0975 17.6834 19.0975 18.3164 18.707 18.707C18.3164 19.0975 17.6834 19.0975 17.2929 18.707L5.29289 6.70696C4.90237 6.31643 4.90237 5.68342 5.29289 5.29289Z" fill="currentColor"/>
    </symbol>
    <symbol viewBox="0 0 24 24" id="plus-icon">
      <path d="M12 5V19" stroke="currentColor" stroke-width="1.5" stroke-linecap="round" stroke-linejoin="round"/>
      <path d="M5 12H19" stroke="currentColor" stroke-width="1.5" stroke-linecap="round" stroke-linejoin="round"/>
    </symbol>
    <symbol viewBox="0 0 24 24" id="minus-icon">
      <path d="M5 12H19" stroke="currentColor" stroke-width="1.5" stroke-linecap="round" stroke-linejoin="round"/>
    </symbol>
    <symbol viewBox="0 0 18 18" id="left-arrow-icon">
      <path d="M3.69633 9.74923C3.28212 9.74919 2.94645 9.41345 2.94649 8.99923C2.94654 8.58502 3.28228 8.24935 3.69649 8.24939L14.3031 8.25054C14.7173 8.25059 15.053 8.58633 15.0529 9.00054C15.0529 9.41476 14.7171 9.75043 14.3029 9.75038L3.69633 9.74923Z" fill="currentColor"/>
      <path d="M9.53056 4.22689L4.75707 8.99935L9.52953 13.7728C9.82239 14.0658 9.82234 14.5406 9.52941 14.8335C9.23649 15.1264 8.76161 15.1263 8.46875 14.8334L3.16602 9.52951C2.87316 9.23658 2.87321 8.76171 3.16614 8.46885L8.47001 3.16612C8.76294 2.87326 9.23781 2.87331 9.53067 3.16623C9.82354 3.45916 9.82348 3.93403 9.53056 4.22689Z" fill="currentColor"/>
    </symbol>
    <symbol viewBox="0 0 10 8" id="check-icon">
      <path d="M9.79883 1.35742L3.7168 7.99219L0 5.51465L1.11523 3.84277L3.39844 5.36426L8.31641 0L9.79883 1.35742Z" fill="currentColor"/>
    </symbol>
  </defs>
</svg>